<svg xmlns="http://www.w3.org/2000/svg" width="157.41" height="35" viewBox="0 0 157.41 35"><rect class="svg__rect" x="0" y="0" width="54.9" height="35" fill="#5593C7"/><rect class="svg__rect" x="52.9" y="0" width="104.50999999999999" height="35" fill="#3BC4F3"/><path class="svg__text" d="M15.70 22L14.22 22L14.22 13.47L15.70 13.47L19.51 19.54L19.51 13.47L20.98 13.47L20.98 22L19.50 22L15.70 15.95L15.70 22ZM27.21 22L25.73 22L25.73 13.47L31.14 13.47L31.14 14.66L27.21 14.66L27.21 17.20L30.64 17.20L30.64 18.38L27.21 18.38L27.21 22ZM36.99 14.66L34.35 14.66L34.35 13.47L41.12 13.47L41.12 14.66L38.46 14.66L38.46 22L36.99 22L36.99 14.66Z" fill="#FFFFFF"/><path class="svg__text" d="M66.66 17.80L66.66 17.80Q66.66 16.55 67.26 15.55Q67.87 14.56 68.93 14.00Q69.99 13.43 71.32 13.43L71.32 13.43Q72.65 13.43 73.72 14.00Q74.78 14.56 75.39 15.55Q75.99 16.55 75.99 17.80L75.99 17.80Q75.99 19.05 75.39 20.04Q74.78 21.04 73.72 21.60Q72.66 22.17 71.32 22.17L71.32 22.17Q69.99 22.17 68.93 21.60Q67.87 21.04 67.26 20.04Q66.66 19.05 66.66 17.80ZM69.06 17.80L69.06 17.80Q69.06 18.51 69.36 19.05Q69.66 19.60 70.18 19.90Q70.69 20.20 71.32 20.20L71.32 20.20Q71.96 20.20 72.48 19.90Q72.99 19.60 73.29 19.05Q73.59 18.51 73.59 17.80L73.59 17.80Q73.59 17.09 73.29 16.54Q72.99 16 72.48 15.70Q71.96 15.40 71.32 15.40L71.32 15.40Q70.69 15.40 70.17 15.70Q69.66 16 69.36 16.54Q69.06 17.09 69.06 17.80ZM83.10 22L80.72 22L80.72 13.60L84.57 13.60Q85.70 13.60 86.54 13.98Q87.38 14.35 87.84 15.06Q88.30 15.76 88.30 16.71L88.30 16.71Q88.30 17.66 87.84 18.35Q87.38 19.05 86.54 19.42Q85.70 19.80 84.57 19.80L84.57 19.80L83.10 19.80L83.10 22ZM83.10 15.47L83.10 17.93L84.42 17.93Q85.15 17.93 85.52 17.61Q85.90 17.29 85.90 16.71L85.90 16.71Q85.90 16.12 85.52 15.80Q85.15 15.47 84.42 15.47L84.42 15.47L83.10 15.47ZM94.84 15.48L92.26 15.48L92.26 13.60L99.78 13.60L99.78 15.48L97.22 15.48L97.22 22L94.84 22L94.84 15.48ZM106.53 22L104.15 22L104.15 13.60L106.53 13.60L106.53 22ZM111.28 17.80L111.28 17.80Q111.28 16.55 111.88 15.55Q112.49 14.56 113.55 14.00Q114.61 13.43 115.94 13.43L115.94 13.43Q117.27 13.43 118.34 14.00Q119.40 14.56 120.01 15.55Q120.61 16.55 120.61 17.80L120.61 17.80Q120.61 19.05 120.01 20.04Q119.40 21.04 118.34 21.60Q117.28 22.17 115.94 22.17L115.94 22.17Q114.61 22.17 113.55 21.60Q112.49 21.04 111.88 20.04Q111.28 19.05 111.28 17.80ZM113.68 17.80L113.68 17.80Q113.68 18.51 113.98 19.05Q114.28 19.60 114.79 19.90Q115.31 20.20 115.94 20.20L115.94 20.20Q116.58 20.20 117.10 19.90Q117.61 19.60 117.91 19.05Q118.21 18.51 118.21 17.80L118.21 17.80Q118.21 17.09 117.91 16.54Q117.61 16 117.10 15.70Q116.58 15.40 115.94 15.40L115.94 15.40Q115.30 15.40 114.79 15.70Q114.28 16 113.98 16.54Q113.68 17.09 113.68 17.80ZM127.67 22L125.34 22L125.34 13.60L127.30 13.60L131.01 18.07L131.01 13.60L133.33 13.60L133.33 22L131.38 22L127.67 17.52L127.67 22ZM137.91 21.24L137.91 21.24L138.69 19.49Q139.25 19.86 140.00 20.09Q140.74 20.32 141.46 20.32L141.46 20.32Q142.83 20.32 142.83 19.64L142.83 19.64Q142.83 19.28 142.44 19.11Q142.05 18.93 141.19 18.74L141.19 18.74Q140.24 18.53 139.60 18.30Q138.96 18.06 138.51 17.55Q138.06 17.03 138.06 16.16L138.06 16.16Q138.06 15.39 138.48 14.77Q138.89 14.15 139.73 13.79Q140.56 13.43 141.77 13.43L141.77 13.43Q142.60 13.43 143.40 13.62Q144.21 13.80 144.82 14.17L144.82 14.17L144.09 15.93Q142.89 15.28 141.76 15.28L141.76 15.28Q141.05 15.28 140.73 15.49Q140.41 15.70 140.41 16.04L140.41 16.04Q140.41 16.37 140.79 16.54Q141.17 16.71 142.02 16.89L142.02 16.89Q142.98 17.10 143.61 17.33Q144.24 17.56 144.71 18.07Q145.17 18.58 145.17 19.46L145.17 19.46Q145.17 20.21 144.75 20.83Q144.33 21.44 143.49 21.80Q142.65 22.17 141.45 22.17L141.45 22.17Q140.43 22.17 139.47 21.92Q138.51 21.67 137.91 21.24Z" fill="#FFFFFF" x="65.9"/></svg>