<svg xmlns="http://www.w3.org/2000/svg" width="263.37" height="35" viewBox="0 0 263.37 35"><rect class="svg__rect" x="0" y="0" width="127.25" height="35" fill="#000000"/><rect class="svg__rect" x="125.25" y="0" width="138.12" height="35" fill="#CDDBDC"/><path class="svg__text" d="M15.70 22L14.22 22L14.22 13.47L17.48 13.47Q18.91 13.47 19.75 14.21Q20.59 14.96 20.59 16.18L20.59 16.18Q20.59 17.44 19.77 18.13Q18.95 18.83 17.46 18.83L17.46 18.83L15.70 18.83L15.70 22ZM15.70 14.66L15.70 17.64L17.48 17.64Q18.27 17.64 18.69 17.27Q19.10 16.90 19.10 16.19L19.10 16.19Q19.10 15.50 18.68 15.09Q18.26 14.68 17.52 14.66L17.52 14.66L15.70 14.66ZM24.61 18.00L24.61 18.00L24.61 17.52Q24.61 16.28 25.05 15.32Q25.49 14.37 26.30 13.86Q27.10 13.35 28.14 13.35Q29.19 13.35 29.99 13.85Q30.80 14.35 31.24 15.29Q31.68 16.23 31.68 17.48L31.68 17.48L31.68 17.96Q31.68 19.21 31.25 20.16Q30.82 21.10 30.01 21.61Q29.21 22.12 28.16 22.12L28.16 22.12Q27.12 22.12 26.31 21.61Q25.50 21.10 25.05 20.17Q24.61 19.23 24.61 18.00ZM26.09 17.46L26.09 17.96Q26.09 19.36 26.64 20.13Q27.18 20.90 28.16 20.90L28.16 20.90Q29.14 20.90 29.67 20.15Q30.20 19.40 30.20 17.96L30.20 17.96L30.20 17.51Q30.20 16.09 29.67 15.34Q29.13 14.58 28.14 14.58L28.14 14.58Q27.18 14.58 26.64 15.33Q26.10 16.09 26.09 17.46L26.09 17.46ZM37.53 22L35.56 13.47L37.03 13.47L38.36 19.88L39.99 13.47L41.23 13.47L42.84 19.89L44.15 13.47L45.62 13.47L43.65 22L42.24 22L40.61 15.77L38.96 22L37.53 22ZM55.27 22L49.70 22L49.70 13.47L55.23 13.47L55.23 14.66L51.18 14.66L51.18 17.02L54.68 17.02L54.68 18.19L51.18 18.19L51.18 20.82L55.27 20.82L55.27 22ZM60.95 22L59.47 22L59.47 13.47L62.47 13.47Q63.95 13.47 64.75 14.13Q65.55 14.79 65.55 16.05L65.55 16.05Q65.55 16.90 65.14 17.48Q64.72 18.06 63.99 18.37L63.99 18.37L65.90 21.92L65.90 22L64.31 22L62.60 18.71L60.95 18.71L60.95 22ZM60.95 14.66L60.95 17.52L62.48 17.52Q63.23 17.52 63.65 17.15Q64.07 16.77 64.07 16.11L64.07 16.11Q64.07 15.43 63.68 15.05Q63.29 14.68 62.52 14.66L62.52 14.66L60.95 14.66ZM75.52 22L69.95 22L69.95 13.47L75.48 13.47L75.48 14.66L71.43 14.66L71.43 17.02L74.93 17.02L74.93 18.19L71.43 18.19L71.43 20.82L75.52 20.82L75.52 22ZM82.17 22L79.72 22L79.72 13.47L82.24 13.47Q83.37 13.47 84.25 13.97Q85.12 14.48 85.60 15.40Q86.08 16.33 86.08 17.52L86.08 17.52L86.08 17.95Q86.08 19.16 85.60 20.08Q85.12 21.00 84.22 21.50Q83.33 22 82.17 22L82.17 22ZM81.20 14.66L81.20 20.82L82.17 20.82Q83.33 20.82 83.96 20.09Q84.58 19.36 84.59 17.99L84.59 17.99L84.59 17.52Q84.59 16.13 83.99 15.40Q83.39 14.66 82.24 14.66L82.24 14.66L81.20 14.66ZM99.64 22L96.52 22L96.52 13.47L99.45 13.47Q100.89 13.47 101.65 14.05Q102.41 14.63 102.41 15.78L102.41 15.78Q102.41 16.36 102.09 16.83Q101.77 17.30 101.16 17.56L101.16 17.56Q101.86 17.75 102.23 18.26Q102.61 18.78 102.61 19.51L102.61 19.51Q102.61 20.71 101.84 21.36Q101.07 22 99.64 22L99.64 22ZM98.01 18.15L98.01 20.82L99.65 20.82Q100.35 20.82 100.74 20.47Q101.14 20.13 101.14 19.51L101.14 19.51Q101.14 18.18 99.78 18.15L99.78 18.15L98.01 18.15ZM98.01 14.66L98.01 17.06L99.46 17.06Q100.15 17.06 100.54 16.75Q100.93 16.43 100.93 15.86L100.93 15.86Q100.93 15.23 100.57 14.95Q100.21 14.66 99.45 14.66L99.45 14.66L98.01 14.66ZM109.12 18.86L106.26 13.47L107.90 13.47L109.87 17.51L111.83 13.47L113.47 13.47L110.61 18.86L110.61 22L109.12 22L109.12 18.86Z" fill="#FFFFFF"/><path class="svg__text" d="M138.85 21.24L138.85 21.24L139.63 19.49Q140.19 19.86 140.94 20.09Q141.68 20.32 142.40 20.32L142.40 20.32Q143.77 20.32 143.77 19.64L143.77 19.64Q143.77 19.28 143.38 19.11Q142.99 18.93 142.13 18.74L142.13 18.74Q141.18 18.53 140.54 18.30Q139.91 18.06 139.45 17.55Q139.00 17.03 139.00 16.16L139.00 16.16Q139.00 15.39 139.42 14.77Q139.84 14.15 140.67 13.79Q141.51 13.43 142.71 13.43L142.71 13.43Q143.54 13.43 144.35 13.62Q145.15 13.80 145.77 14.17L145.77 14.17L145.03 15.93Q143.83 15.28 142.70 15.28L142.70 15.28Q141.99 15.28 141.67 15.49Q141.35 15.70 141.35 16.04L141.35 16.04Q141.35 16.37 141.73 16.54Q142.12 16.71 142.97 16.89L142.97 16.89Q143.93 17.10 144.56 17.33Q145.19 17.56 145.65 18.07Q146.11 18.58 146.11 19.46L146.11 19.46Q146.11 20.21 145.69 20.83Q145.27 21.44 144.43 21.80Q143.59 22.17 142.39 22.17L142.39 22.17Q141.37 22.17 140.41 21.92Q139.45 21.67 138.85 21.24ZM150.62 18.26L150.62 18.26L150.62 13.60L153.00 13.60L153.00 18.19Q153.00 20.20 154.59 20.20L154.59 20.20Q156.17 20.20 156.17 18.19L156.17 18.19L156.17 13.60L158.52 13.60L158.52 18.26Q158.52 20.13 157.48 21.15Q156.44 22.17 154.57 22.17L154.57 22.17Q152.69 22.17 151.65 21.15Q150.62 20.13 150.62 18.26ZM165.98 22L163.60 22L163.60 13.60L167.45 13.60Q168.58 13.60 169.42 13.98Q170.26 14.35 170.72 15.06Q171.18 15.76 171.18 16.71L171.18 16.71Q171.18 17.66 170.72 18.35Q170.26 19.05 169.42 19.42Q168.58 19.80 167.45 19.80L167.45 19.80L165.98 19.80L165.98 22ZM165.98 15.47L165.98 17.93L167.30 17.93Q168.03 17.93 168.40 17.61Q168.78 17.29 168.78 16.71L168.78 16.71Q168.78 16.12 168.40 15.80Q168.03 15.47 167.30 15.47L167.30 15.47L165.98 15.47ZM182.67 22L175.93 22L175.93 13.60L182.52 13.60L182.52 15.44L178.29 15.44L178.29 16.85L182.02 16.85L182.02 18.63L178.29 18.63L178.29 20.17L182.67 20.17L182.67 22ZM189.86 22L187.48 22L187.48 13.60L191.32 13.60Q192.47 13.60 193.30 13.98Q194.14 14.35 194.60 15.06Q195.06 15.76 195.06 16.71L195.06 16.71Q195.06 17.62 194.63 18.30Q194.20 18.98 193.41 19.36L193.41 19.36L195.22 22L192.68 22L191.15 19.77L189.86 19.77L189.86 22ZM189.86 15.47L189.86 17.93L191.18 17.93Q191.91 17.93 192.28 17.61Q192.65 17.29 192.65 16.71L192.65 16.71Q192.65 16.12 192.28 15.79Q191.91 15.47 191.18 15.47L191.18 15.47L189.86 15.47ZM202.22 22L199.84 22L199.84 13.60L206.43 13.60L206.43 15.44L202.22 15.44L202.22 17.28L205.93 17.28L205.93 19.12L202.22 19.12L202.22 22ZM217.41 22L211.03 22L211.03 13.60L213.41 13.60L213.41 20.11L217.41 20.11L217.41 22ZM221.76 18.26L221.76 18.26L221.76 13.60L224.14 13.60L224.14 18.19Q224.14 20.20 225.73 20.20L225.73 20.20Q227.32 20.20 227.32 18.19L227.32 18.19L227.32 13.60L229.66 13.60L229.66 18.26Q229.66 20.13 228.62 21.15Q227.58 22.17 225.71 22.17L225.71 22.17Q223.84 22.17 222.80 21.15Q221.76 20.13 221.76 18.26ZM237.13 22L234.75 22L234.75 13.60L237.13 13.60L237.13 22ZM246.27 22L242.30 22L242.30 13.60L246.27 13.60Q247.65 13.60 248.72 14.12Q249.79 14.63 250.38 15.58Q250.97 16.53 250.97 17.80L250.97 17.80Q250.97 19.07 250.38 20.02Q249.79 20.97 248.72 21.48Q247.65 22 246.27 22L246.27 22ZM244.68 15.50L244.68 20.10L246.18 20.10Q247.26 20.10 247.91 19.49Q248.56 18.88 248.56 17.80L248.56 17.80Q248.56 16.72 247.91 16.11Q247.26 15.50 246.18 15.50L246.18 15.50L244.68 15.50Z" fill="#000000" x="138.25"/></svg>