<svg xmlns="http://www.w3.org/2000/svg" width="201.95" height="35" viewBox="0 0 201.95 35"><rect class="svg__rect" x="0" y="0" width="95.04" height="35" fill="#C13B3A"/><rect class="svg__rect" x="93.04" y="0" width="108.90999999999998" height="35" fill="#EA4560"/><path class="svg__text" d="M15.70 22L14.22 22L14.22 13.47L17.22 13.47Q18.69 13.47 19.50 14.13Q20.30 14.79 20.30 16.05L20.30 16.05Q20.30 16.90 19.89 17.48Q19.47 18.06 18.73 18.37L18.73 18.37L20.65 21.92L20.65 22L19.06 22L17.35 18.71L15.70 18.71L15.70 22ZM15.70 14.66L15.70 17.52L17.22 17.52Q17.97 17.52 18.39 17.15Q18.82 16.77 18.82 16.11L18.82 16.11Q18.82 15.43 18.43 15.05Q18.04 14.68 17.26 14.66L17.26 14.66L15.70 14.66ZM24.56 19.16L24.56 19.16L24.56 13.47L26.04 13.47L26.04 19.18Q26.04 20.03 26.47 20.48Q26.90 20.93 27.75 20.93L27.75 20.93Q29.46 20.93 29.46 19.13L29.46 19.13L29.46 13.47L30.93 13.47L30.93 19.17Q30.93 20.53 30.06 21.32Q29.19 22.12 27.75 22.12L27.75 22.12Q26.28 22.12 25.42 21.33Q24.56 20.55 24.56 19.16ZM36.99 22L35.50 22L35.50 13.47L36.99 13.47L40.80 19.54L40.80 13.47L42.27 13.47L42.27 22L40.79 22L36.99 15.95L36.99 22ZM46.58 19.42L46.58 19.42L48.06 19.42Q48.06 20.15 48.54 20.55Q49.02 20.95 49.92 20.95L49.92 20.95Q50.69 20.95 51.08 20.63Q51.47 20.32 51.47 19.80L51.47 19.80Q51.47 19.24 51.08 18.94Q50.68 18.63 49.65 18.32Q48.62 18.01 48.01 17.63L48.01 17.63Q46.84 16.90 46.84 15.72L46.84 15.72Q46.84 14.69 47.68 14.02Q48.52 13.35 49.87 13.35L49.87 13.35Q50.76 13.35 51.45 13.68Q52.15 14.01 52.55 14.61Q52.95 15.22 52.95 15.96L52.95 15.96L51.47 15.96Q51.47 15.29 51.05 14.91Q50.63 14.54 49.85 14.54L49.85 14.54Q49.13 14.54 48.73 14.85Q48.32 15.16 48.32 15.71L48.32 15.71Q48.32 16.18 48.76 16.50Q49.19 16.81 50.19 17.10Q51.18 17.40 51.79 17.78Q52.39 18.16 52.67 18.65Q52.95 19.13 52.95 19.79L52.95 19.79Q52.95 20.86 52.14 21.49Q51.32 22.12 49.92 22.12L49.92 22.12Q48.99 22.12 48.22 21.77Q47.44 21.43 47.01 20.83Q46.58 20.22 46.58 19.42ZM62.95 18.00L62.95 18.00L62.95 17.52Q62.95 16.28 63.39 15.32Q63.83 14.37 64.64 13.86Q65.45 13.35 66.49 13.35Q67.53 13.35 68.34 13.85Q69.14 14.35 69.58 15.29Q70.02 16.23 70.03 17.48L70.03 17.48L70.03 17.96Q70.03 19.21 69.59 20.16Q69.16 21.10 68.35 21.61Q67.55 22.12 66.50 22.12L66.50 22.12Q65.46 22.12 64.65 21.61Q63.84 21.10 63.40 20.17Q62.96 19.23 62.95 18.00ZM64.43 17.46L64.43 17.96Q64.43 19.36 64.98 20.13Q65.53 20.90 66.50 20.90L66.50 20.90Q67.48 20.90 68.02 20.15Q68.55 19.40 68.55 17.96L68.55 17.96L68.55 17.51Q68.55 16.09 68.01 15.34Q67.47 14.58 66.49 14.58L66.49 14.58Q65.53 14.58 64.99 15.33Q64.44 16.09 64.43 17.46L64.43 17.46ZM75.97 22L74.49 22L74.49 13.47L75.97 13.47L79.79 19.54L79.79 13.47L81.26 13.47L81.26 22L79.78 22L75.97 15.95L75.97 22Z" fill="#FFFFFF"/><path class="svg__text" d="M109.61 22L107.23 22L107.23 13.60L111.07 13.60Q112.21 13.60 113.05 13.98Q113.89 14.35 114.35 15.06Q114.80 15.76 114.80 16.71L114.80 16.71Q114.80 17.66 114.35 18.35Q113.89 19.05 113.05 19.42Q112.21 19.80 111.07 19.80L111.07 19.80L109.61 19.80L109.61 22ZM109.61 15.47L109.61 17.93L110.93 17.93Q111.66 17.93 112.03 17.61Q112.40 17.29 112.40 16.71L112.40 16.71Q112.40 16.12 112.03 15.80Q111.66 15.47 110.93 15.47L110.93 15.47L109.61 15.47ZM119.13 17.80L119.13 17.80Q119.13 16.55 119.73 15.55Q120.34 14.56 121.40 14.00Q122.46 13.43 123.79 13.43L123.79 13.43Q125.12 13.43 126.19 14.00Q127.25 14.56 127.86 15.55Q128.46 16.55 128.46 17.80L128.46 17.80Q128.46 19.05 127.86 20.04Q127.25 21.04 126.19 21.60Q125.13 22.17 123.79 22.17L123.79 22.17Q122.46 22.17 121.40 21.60Q120.34 21.04 119.73 20.04Q119.13 19.05 119.13 17.80ZM121.52 17.80L121.52 17.80Q121.52 18.51 121.83 19.05Q122.13 19.60 122.64 19.90Q123.16 20.20 123.79 20.20L123.79 20.20Q124.43 20.20 124.95 19.90Q125.46 19.60 125.76 19.05Q126.06 18.51 126.06 17.80L126.06 17.80Q126.06 17.09 125.76 16.54Q125.46 16 124.95 15.70Q124.43 15.40 123.79 15.40L123.79 15.40Q123.15 15.40 122.64 15.70Q122.13 16 121.83 16.54Q121.52 17.09 121.52 17.80ZM139.58 22L133.19 22L133.19 13.60L135.57 13.60L135.57 20.11L139.58 20.11L139.58 22ZM146.12 18.95L142.92 13.60L145.43 13.60L147.42 16.94L149.41 13.60L151.71 13.60L148.50 18.99L148.50 22L146.12 22L146.12 18.95ZM155.37 17.80L155.37 17.80Q155.37 16.54 155.97 15.54Q156.56 14.55 157.63 13.99Q158.70 13.43 160.04 13.43L160.04 13.43Q161.22 13.43 162.16 13.83Q163.10 14.22 163.72 14.97L163.72 14.97L162.21 16.33Q161.36 15.40 160.18 15.40L160.18 15.40Q160.17 15.40 160.17 15.40L160.17 15.40Q159.09 15.40 158.43 16.06Q157.77 16.71 157.77 17.80L157.77 17.80Q157.77 18.50 158.07 19.04Q158.37 19.59 158.91 19.89Q159.45 20.20 160.14 20.20L160.14 20.20Q160.83 20.20 161.43 19.93L161.43 19.93L161.43 17.62L163.52 17.62L163.52 21.10Q162.80 21.61 161.87 21.89Q160.93 22.17 160.00 22.17L160.00 22.17Q158.68 22.17 157.62 21.61Q156.56 21.05 155.97 20.05Q155.37 19.06 155.37 17.80ZM168.09 17.80L168.09 17.80Q168.09 16.55 168.69 15.55Q169.30 14.56 170.36 14.00Q171.42 13.43 172.75 13.43L172.75 13.43Q174.08 13.43 175.15 14.00Q176.21 14.56 176.82 15.55Q177.42 16.55 177.42 17.80L177.42 17.80Q177.42 19.05 176.82 20.04Q176.21 21.04 175.15 21.60Q174.09 22.17 172.75 22.17L172.75 22.17Q171.42 22.17 170.36 21.60Q169.30 21.04 168.69 20.04Q168.09 19.05 168.09 17.80ZM170.49 17.80L170.49 17.80Q170.49 18.51 170.79 19.05Q171.09 19.60 171.60 19.90Q172.12 20.20 172.75 20.20L172.75 20.20Q173.39 20.20 173.91 19.90Q174.42 19.60 174.72 19.05Q175.02 18.51 175.02 17.80L175.02 17.80Q175.02 17.09 174.72 16.54Q174.42 16 173.91 15.70Q173.39 15.40 172.75 15.40L172.75 15.40Q172.11 15.40 171.60 15.70Q171.09 16 170.79 16.54Q170.49 17.09 170.49 17.80ZM184.48 22L182.15 22L182.15 13.60L184.11 13.60L187.82 18.07L187.82 13.60L190.14 13.60L190.14 22L188.19 22L184.48 17.52L184.48 22Z" fill="#FFFFFF" x="106.04"/></svg>